# xmcd
#
# Track frame offsets: 
#        150
#        19164
#        36891
#        58794
#        78229
#        95059
#        120715
#        140102
#        167114
#        188697
#        210141
#        237673
#        261556
#
# Disc length: 4068 seconds
#
# Revision: 0
# Processed by: cddbd v1.5.2PL0 Copyright (c) Steve Scherf et al.
# Submitted via: ExactAudioCopyFreeDBPlugin 1.0
#
DISCID=bb0fe20d
DTITLE=Popa Chubby - Two dogs
DYEAR=2017
DGENRE=Blues
TTITLE0=It’s alright
TTITLE1=Rescue me
TTITLE2=Preexisting conditions
TTITLE3=Sam Lay’s pistol
TTITLE4=Two dogs
TTITLE5=Dirty old blues
TTITLE6=Shakedown
TTITLE7=Wound up getting high
TTITLE8=Cayophus Dupree
TTITLE9=Me won’t back down
TTITLE10=Chubby’s boogie
TTITLE11=Sympathy for the devil (reprise live des Rolling Stones)
TTITLE12=Hallelujah (reprise live de Leonard Cohen)
EXTD=
EXTT0=
EXTT1=
EXTT2=
EXTT3=
EXTT4=
EXTT5=
EXTT6=
EXTT7=
EXTT8=
EXTT9=
EXTT10=
EXTT11=
EXTT12=
PLAYORDER=
